<svg version="1.2" xmlns="http://www.w3.org/2000/svg" viewBox="0 0 50 50" width="50" height="50"><defs><clipPath clipPathUnits="userSpaceOnUse" id="cp1"><path d="m2 4h46v44h-46zm43 27.4l-11.46-5.63 11.46-5.57-5-8.6-10.46 6.97 0.76-12.57h-9.9l0.83 12.69-10.63-7.09-4.9 8.6 11.39 5.57-11.39 5.63 4.9 8.6 10.64-7.16-0.84 12.76h9.9l-0.77-12.64 10.47 7.04zm-23.44-3.45l-0.32 4.89 5.86-3.94-3.6-6.3-1.95 0.96-0.32-4.87 4.07 2.71 4.24-2.83-0.31 5.08 4.31 2.12-6.44 3.13-1.8-3.15-1.8 3.15-1.94-0.95 0.14-2.15-0.15-2.24-4.46 2.21z"/></clipPath></defs><style>.a{fill:#fb2c54}</style><g clip-path="url(#cp1)"><path class="a" d="m40 40l-1.1 1.7 1.8 1.2 1-1.9zm-17.6 5.7l1.3-19.8-4-0.2-1.3 19.8zm-12.9-32.5l16.5 11 2.2-3.3-16.5-11zm35.6 18.1l1.7 1 1.1-1.8-2-1zm-20.6-4.3l-17.8-8.7-1.7 3.6 17.8 8.7zm-4-21.1v-2h-2.2l0.2 2.1zm9.9 0l2 0.2 0.1-2.2h-2.1zm-4.1 18.4l17.9 8.8 1.8-3.5-17.9-8.8zm-5.8 21.2l-2-0.2-0.2 2.2h2.2zm3.2-20l-1.3-19.8-3.9 0.3 1.3 19.8zm4.6-19.8l-1.2 19.8 4 0.2 1.2-19.8zm2 39.8v2h2.1l-0.2-2.2zm10.9-7.2l-16.5-11.1-2.3 3.3 16.5 11.1zm-35.4-18.1l-1.7-1-1.1 1.8 1.9 1zm4.9-8.6l1.1-1.7-1.7-1.2-1.1 1.9zm14 12.6l16.5-11-2.2-3.3-16.5 11zm1.4 3l-16.5 11.1 2.2 3.3 16.5-11.1zm-19.4 5.9l17.8-8.8-1.8-3.5-17.8 8.8zm33.4-21.6l1.8-1-1.1-1.9-1.8 1.2zm5 8.6l0.9 1.8 1.9-0.9-1-1.9zm-34.4 19.8l-1.8 1 1.1 1.9 1.8-1.2zm-4.9-8.6l-0.9-1.8-1.9 0.9 1 1.8zm17.8-8.8l1.8-0.9-1-1.7-1.6 0.9zm20.6-4.2l-17.9 8.7 1.7 3.6 17.9-8.7zm-20.6 10.5l-0.9 1.8 1.7 0.8 0.9-1.7zm-1.7-5.3l3.6 6.3 3.5-1.9-3.6-6.3zm5.3 2.3l1.2 19.8 4-0.3-1.2-19.8zm16.2 4.5l-5 8.6 3.4 2 5-8.6zm-21.5-4.6v-2h-1.9l-0.1 1.9zm-1.3-17.8h9.9v-4h-9.9zm8.7 17.8l2-0.1-0.2-1.9h-1.8zm-7.4 2h7.4v-4h-7.4zm1.8 1.1l-1.8-1-0.9 1.6 1.5 1.1zm5.6-5.1h-7.4v4h7.4zm0 2v2h1.9l0.1-1.9zm1.2 17.8h-9.9v4h9.9zm-8.6-17.8l-1.9 0.1 0.1 1.9h1.8zm-14.2-4.6l4.9-8.6-3.5-2-4.9 8.6zm19.7 1.4l0.9-1.8-1.7-0.8-1 1.6zm1.8 5.3l-3.6-6.3-3.5 2 3.6 6.3zm-3.5-6.3l-3.6 6.3 3.5 2 3.6-6.3zm1.7 1l1.8 1 0.9-1.7-1.6-1zm11.2-10l5 8.6 3.5-2-5-8.6zm-11.2 16.3l1.1 1.7 1.6-1.1-1-1.6zm-14.7 10.1l-4.9-8.6-3.5 2 4.9 8.6zm11.2-16.4l-1.1-1.7-1.6 1.1 0.9 1.6zm1.8 7.3l3.6-6.3-3.5-2-3.6 6.3zm1.9-1l-1.8 1 0.9 1.6 1.7-0.8z"/></g></svg>