<svg version="1.2" xmlns="http://www.w3.org/2000/svg" viewBox="0 0 120 69" width="120" height="69"><defs><linearGradient id="P" gradientUnits="userSpaceOnUse"/><linearGradient id="g1" x2="1" href="#P" gradientTransform="matrix(5.395,0,0,5.423,84.074,1.028)"><stop stop-color="#c4ac7b"/><stop offset="1" stop-color="#7d6b4a"/></linearGradient><linearGradient id="g2" x2="1" href="#P" gradientTransform="matrix(5.395,0,0,5.423,84.074,11.956)"><stop stop-color="#c4ac7b"/><stop offset="1" stop-color="#7d6b4a"/></linearGradient><linearGradient id="g3" x2="1" href="#P" gradientTransform="matrix(35.678,0,0,16.022,84.074,52.093)"><stop stop-color="#c4ac7b"/><stop offset="1" stop-color="#7d6b4a"/></linearGradient><linearGradient id="g4" x2="1" href="#P" gradientTransform="matrix(35.678,0,0,46.506,84.074,1.028)"><stop stop-color="#c4ac7b"/><stop offset="1" stop-color="#7d6b4a"/></linearGradient></defs><style>.a{fill:#fefefe}.b{fill:url(#g1)}.c{fill:url(#g2)}.d{fill:url(#g3)}.e{fill:url(#g4)}</style><path class="a" d="m1.7 8.7q0.4 0 0.3 0.3 0 0.4-0.1 0.9 0 0.4 0 0.7 0 0.9 0.1 1.8 0.2 0.8 0.6 1.4 0.5 0.6 1.4 0.9 0.9 0.4 2.5 0.4 0.4 0 0.8 0 0.5-0.1 0.9-0.1 0.1-0.5 0.1-0.9 0-0.4 0-0.7 0-0.4 0-0.7 0-0.3 0-0.7v-11.5q0-0.1 0.1-0.2 0.1-0.1 0.2-0.1h1q0.2 0 0.3 0.1 0.1 0.1 0.1 0.2v12.8q0 0.2 0 0.6 0 0.3 0 0.7 0 0.4-0.1 0.8 0 0.4 0 0.6 0 0.2-0.1 0.2-0.1 0.1-0.3 0.1-0.7 0.2-1.5 0.3-0.7 0-1.6 0-1.7 0-2.9-0.3-1.2-0.4-1.9-1.1-0.8-0.7-1.1-1.7-0.3-1-0.3-2.3 0-0.2 0.1-0.4 0-0.3 0-0.6 0-0.3 0.1-0.6 0-0.4 0.1-0.6 0.1-0.3 0.3-0.3z"/><path class="a" d="m12.2 0.5q0-0.1 0.1-0.2 0.1-0.1 0.3-0.1h1q0.1 0 0.2 0.1 0.1 0.1 0.1 0.2v10.5q0 0.3 0.1 0.5 0.1 0.3 0.3 0.4 0.2 0.1 0.4 0.1 0.3 0 0.6 0h0.5v1.6h-1q-0.6 0-1.1-0.1-0.5-0.1-0.8-0.4-0.3-0.2-0.5-0.7-0.2-0.4-0.2-1.1z"/><path class="a" d="m15.7 13.6q-0.3 0-0.5-0.1-0.2-0.1-0.2-0.2v-1q0-0.1 0.2-0.2 0.2-0.1 0.5-0.1h4.4v1.6z"/><path class="a" d="m20 13.6q-0.3 0-0.5-0.1-0.2-0.1-0.2-0.2v-1q0-0.1 0.2-0.2 0.2-0.1 0.5-0.1h4.4v1.6z"/><path class="a" d="m24.3 13.6q-0.3 0-0.5-0.1-0.2-0.1-0.2-0.2v-1q0-0.1 0.2-0.2 0.2-0.1 0.5-0.1h4.4v1.6z"/><path class="a" d="m28.6 13.6q-0.3 0-0.5-0.1-0.2-0.1-0.2-0.2v-1q0-0.1 0.2-0.2 0.2-0.1 0.5-0.1h4.4v1.6z"/><path class="a" d="m32.9 13.6q-0.3 0-0.5-0.1-0.2-0.1-0.2-0.2v-1q0-0.1 0.2-0.2 0.2-0.1 0.5-0.1h4.4v1.6z"/><path class="a" d="m37.2 13.6q-0.3 0-0.5-0.1-0.2-0.1-0.2-0.2v-1q0-0.1 0.2-0.2 0.2-0.1 0.5-0.1h4.4v1.6z"/><path class="a" d="m41.5 13.6q-0.3 0-0.5-0.1-0.2-0.1-0.2-0.2v-1q0-0.1 0.2-0.2 0.2-0.1 0.5-0.1h4.4v1.6z"/><path class="a" d="m45.8 13.6q-0.3 0-0.5-0.1-0.2-0.1-0.2-0.2v-1q0-0.1 0.2-0.2 0.2-0.1 0.5-0.1h4.4v1.6z"/><path fill-rule="evenodd" class="a" d="m49.4 12.3q0-0.1 0.2-0.2 0.2-0.1 0.5-0.1h2.3v-6.2q0-0.2 0.1-0.3 0.1-0.1 0.3-0.1h0.9q0.1 0 0.2 0.1 0.2 0.1 0.2 0.3v0.7q0.5-0.4 1.1-0.6 0.7-0.2 1.3-0.3 0.6-0.1 1.1-0.2 0.6 0 0.9 0 1.3 0 2.3 0.2 1 0.3 1.7 0.8 0.6 0.6 1 1.5 0.3 0.8 0.3 2.1c0 0.1 0 0.5 0 0.7q0 0.3 0 0.5 0 0.3 0 0.5-0.1 0.2-0.1 0.3h1.6v1.6h-15.2q-0.3 0-0.5-0.1-0.2-0.1-0.2-0.2zm4.7-0.2q0.5 0 1 0 0.5 0 1.4 0h5.1q0.3 0 0.4-0.3 0.2-0.3 0.2-1.2v-0.3q0-1-0.3-1.7-0.2-0.6-0.7-1-0.5-0.4-1.3-0.5-0.8-0.2-1.8-0.2-0.3 0-0.8 0.1-0.5 0-1.1 0.1-0.6 0.1-1.1 0.3-0.6 0.2-1 0.5z"/><path fill-rule="evenodd" class="a" d="m64.5 12.3q0-0.1 0.2-0.2 0.2-0.1 0.5-0.1h2.4q-0.4-0.3-0.6-0.9-0.3-0.6-0.3-1.6v-0.4q0-1.8 1.3-2.8 1.2-1 3.3-1 0.9 0 1.7 0 0.8 0.1 1.3 0.3 0.2 0 0.3 0.1 0.1 0 0.1 0.2c0 0.2 0 5.1 0 5.3q0 0.3-0.1 0.7 0 0.3 0 0.7 0 0.3 0 0.5 0 0.3-0.5 0.4-0.8 0.1-1.6 0.1-0.8 0-1.6 0h-5.7q-0.3 0-0.5-0.1-0.2-0.1-0.2-0.2zm3.9-2.7q0 1.2 0.6 1.9 0.7 0.6 2 0.6 0.5 0 1 0 0.6 0 1 0v-5.3q-0.4 0-0.9 0-0.4-0.1-0.9-0.1-1.4 0-2.1 0.7-0.7 0.6-0.7 1.8zm0.1-7.5q0-0.2 0.1-0.3 0.1-0.1 0.3-0.1h0.8q0.2 0 0.3 0.1 0.2 0.1 0.2 0.3v0.9q0 0.2-0.2 0.3-0.1 0.1-0.3 0.1h-0.8q-0.2 0-0.3-0.1-0.1-0.1-0.1-0.3zm3.2 0q0-0.2 0.2-0.3 0.1-0.1 0.3-0.1h0.8q0.2 0 0.3 0.1 0.2 0.1 0.2 0.3v1q0 0.1-0.2 0.2-0.1 0.1-0.3 0.1h-0.8q-0.2 0-0.3-0.1-0.2-0.1-0.2-0.2z"/><path class="a" d="m6.9 63.3q0 0.1-0.1 0.1 0 0.1-0.1 0.1h-3.6v3.2q0 0.1 0 0.2-0.1 0-0.2 0h-0.6q-0.1 0-0.2 0 0-0.1 0-0.2v-5.3q0-1 0.6-1.4 0.6-0.4 1.8-0.4 0.3 0 0.6 0 0.3 0 0.6 0 0.4 0 0.6 0 0.3 0 0.5 0 0.1 0 0.1 0.1 0 0 0 0v0.5q0 0.2-0.1 0.2h-2.2q-0.5 0-0.8 0-0.3 0.1-0.4 0.2-0.2 0.1-0.2 0.3-0.1 0.2-0.1 0.5v1.3h3.6q0.1 0 0.1 0.1 0.1 0.1 0.1 0.1z"/><path fill-rule="evenodd" class="a" d="m14.4 63.9q0 0.8-0.2 1.4-0.3 0.6-0.7 1-0.4 0.3-1 0.5-0.6 0.2-1.2 0.2-0.7 0-1.3-0.2-0.6-0.2-1-0.5-0.4-0.4-0.6-1-0.3-0.6-0.3-1.4v-1.3q0-0.8 0.3-1.4 0.2-0.5 0.6-0.9 0.4-0.4 1-0.6 0.6-0.1 1.3-0.1 0.6 0 1.2 0.1 0.6 0.2 1 0.6 0.4 0.4 0.7 0.9 0.2 0.6 0.2 1.4zm-1.1-1.2q0-0.6-0.1-1.1-0.2-0.4-0.4-0.7-0.3-0.3-0.7-0.4-0.4-0.1-0.8-0.1-0.5 0-0.9 0.1-0.4 0.1-0.6 0.4-0.3 0.3-0.5 0.7-0.1 0.5-0.1 1.1v1.2q0 0.7 0.1 1.1 0.2 0.4 0.4 0.7 0.3 0.3 0.7 0.4 0.4 0.1 0.9 0.1 0.4 0 0.8-0.1 0.4-0.1 0.7-0.4 0.2-0.3 0.4-0.7 0.1-0.4 0.1-1.1z"/><path fill-rule="evenodd" class="a" d="m21.9 66.8q0 0.1-0.2 0.1h-0.7q-0.1 0-0.2 0-0.1 0-0.1-0.1l-2.1-2.9h-0.3q-0.3 0-0.5 0-0.3 0-0.8-0.1v2.9q0 0.1 0 0.2-0.1 0-0.2 0h-0.6q-0.1 0-0.2 0 0-0.1 0-0.2v-6.9q0-0.1 0-0.1 0.1 0 0.3-0.1 0.1 0 0.4 0 0.2 0 0.5 0 0.3 0 0.6 0 0.2 0 0.5 0 0.7 0 1.3 0.1 0.6 0.1 1 0.3 0.4 0.3 0.7 0.7 0.2 0.4 0.2 1 0 0.4-0.1 0.8-0.1 0.3-0.4 0.6-0.2 0.2-0.5 0.4-0.4 0.1-0.8 0.2l2.1 3q0.1 0.1 0.1 0.1zm-1.4-5.1q0-0.8-0.6-1.1-0.5-0.2-1.6-0.2-0.1 0-0.3 0-0.2 0-0.4 0-0.1 0-0.3 0-0.2 0-0.3 0v2.7q0.4 0 0.8 0 0.3 0 0.5 0 0.5 0 0.9-0.1 0.5 0 0.7-0.2 0.3-0.1 0.5-0.4 0.1-0.3 0.1-0.7z"/><path fill-rule="evenodd" class="a" d="m31.5 61.8q0 0.6-0.2 1.1-0.2 0.4-0.7 0.6-0.4 0.3-1 0.4-0.6 0.1-1.3 0.1-0.3 0-0.6 0-0.3 0-0.6 0v2.7q0 0.1 0 0.2-0.1 0-0.2 0h-0.6q-0.1 0-0.2 0 0-0.1 0-0.2v-6.8q0-0.2 0.3-0.3 0.3 0 0.9 0 0.5 0 1 0 0.7 0 1.3 0.1 0.6 0.1 1 0.3 0.5 0.3 0.7 0.7 0.2 0.4 0.2 1zm-1-0.1q0-0.8-0.6-1.1-0.5-0.3-1.6-0.3-0.3 0-0.6 0-0.4 0-0.6 0v2.9q0.1 0 0.3 0 0.1 0 0.3 0 0.2 0 0.3 0 0.2 0 0.3 0 1.2 0 1.7-0.3 0.5-0.4 0.5-1.1z"/><path fill-rule="evenodd" class="a" d="m38.9 66.8q0 0.1-0.2 0.1h-0.7q-0.1 0-0.2 0-0.1 0-0.1-0.1l-2.1-2.9h-0.3q-0.3 0-0.6 0-0.2 0-0.7-0.1v2.9q0 0.1-0.1 0.2 0 0-0.1 0h-0.6q-0.1 0-0.2 0 0-0.1 0-0.2v-6.9q0-0.1 0-0.1 0.1 0 0.2-0.1 0.2 0 0.5 0 0.2 0 0.5 0 0.3 0 0.5 0 0.3 0 0.6 0 0.7 0 1.3 0.1 0.6 0.1 1 0.3 0.4 0.3 0.7 0.7 0.2 0.4 0.2 1 0 0.4-0.1 0.8-0.1 0.3-0.4 0.6-0.2 0.2-0.6 0.4-0.3 0.1-0.7 0.2l2.1 3q0.1 0.1 0.1 0.1zm-1.4-5.1q0-0.8-0.6-1.1-0.5-0.2-1.6-0.2-0.2 0-0.3 0-0.2 0-0.4 0-0.2 0-0.3 0-0.2 0-0.3 0v2.7q0.4 0 0.7 0 0.4 0 0.6 0 0.5 0 0.9-0.1 0.4 0 0.7-0.2 0.3-0.1 0.4-0.4 0.2-0.3 0.2-0.7z"/><path fill-rule="evenodd" class="a" d="m46 63.9q0 0.8-0.2 1.4-0.2 0.6-0.6 1-0.5 0.3-1 0.5-0.6 0.2-1.3 0.2-0.7 0-1.2-0.2-0.6-0.2-1-0.5-0.5-0.4-0.7-1-0.2-0.6-0.2-1.4v-1.3q0-0.8 0.2-1.4 0.2-0.5 0.7-0.9 0.4-0.4 1-0.6 0.5-0.1 1.2-0.1 0.7 0 1.3 0.1 0.5 0.2 1 0.6 0.4 0.4 0.6 0.9 0.2 0.6 0.2 1.4zm-1-1.2q0-0.6-0.2-1.1-0.1-0.4-0.4-0.7-0.2-0.3-0.6-0.4-0.4-0.1-0.9-0.1-0.5 0-0.8 0.1-0.4 0.1-0.7 0.4-0.3 0.3-0.4 0.7-0.2 0.5-0.2 1.1v1.2q0 0.7 0.2 1.1 0.1 0.4 0.4 0.7 0.3 0.3 0.7 0.4 0.3 0.1 0.8 0.1 0.5 0 0.9-0.1 0.4-0.1 0.6-0.4 0.3-0.3 0.4-0.7 0.2-0.4 0.2-1.1z"/><path class="a" d="m48.8 67.3q0 0.7-0.4 1-0.4 0.4-1.4 0.4-0.2 0-0.4 0-0.1-0.1-0.2-0.1-0.1 0-0.1-0.1v-0.4q0 0 0.1-0.1 0.1 0 0.2 0h0.4q0.5 0 0.6-0.2 0.2-0.1 0.2-0.5v-7.5q0-0.1 0-0.1 0.1-0.1 0.2-0.1h0.6q0.1 0 0.1 0.1 0.1 0 0.1 0.1z"/><path class="a" d="m55.5 66.8q0 0.1-0.1 0.1 0 0-0.1 0-0.1 0.1-0.4 0.1-0.3 0-0.6 0-0.3 0-0.6 0-0.4 0-0.6 0-1.2 0-1.9-0.4-0.6-0.5-0.6-1.4v-3.8q0-1 0.6-1.4 0.7-0.4 1.9-0.4 0.2 0 0.6 0 0.3 0 0.6 0 0.3 0 0.6 0 0.3 0 0.4 0 0.1 0 0.1 0.1 0.1 0 0.1 0v0.5q0 0.2-0.2 0.2h-2.2q-0.5 0-0.7 0-0.3 0.1-0.5 0.2-0.1 0.1-0.2 0.3 0 0.2 0 0.5v1.3h3.5q0.1 0 0.2 0.1 0.1 0.1 0.1 0.1v0.4q0 0.1-0.1 0.1-0.1 0.1-0.2 0.1h-3.5v1.7q0 0.2 0 0.4 0.1 0.2 0.2 0.4 0.2 0.1 0.5 0.1 0.2 0.1 0.7 0.1h2.2q0.2 0 0.2 0.1z"/><path class="a" d="m62 66.7q0 0.1-0.1 0.1 0 0-0.1 0.1-0.2 0-0.4 0-0.2 0-0.4 0.1-0.2 0-0.5 0-0.3 0-0.6 0-0.6 0-1.1-0.1-0.6-0.2-1-0.5-0.4-0.4-0.7-1-0.3-0.6-0.3-1.4v-1.4q0-0.9 0.3-1.5 0.3-0.6 0.7-0.9 0.4-0.4 1-0.5 0.5-0.1 1.1-0.1 0.5 0 1 0 0.5 0.1 0.9 0.1 0.2 0 0.2 0.1v0.5q0 0.1 0 0.1-0.1 0-0.2 0-0.1 0-0.4 0-0.2 0-0.5 0-0.2 0-0.5 0-0.3 0-0.5 0-0.5 0-0.8 0.1-0.4 0.1-0.7 0.3-0.2 0.3-0.4 0.7-0.2 0.5-0.2 1.1v1.4q0 0.6 0.2 1 0.2 0.4 0.4 0.7 0.3 0.3 0.7 0.4 0.3 0.1 0.8 0.1 0.2 0 0.5 0 0.3 0 0.5 0 0.3-0.1 0.5-0.1 0.2 0 0.4 0 0.2 0 0.2 0.2z"/><path class="a" d="m68.8 60.2q0 0.2-0.2 0.2h-2.2v6.3q0 0.1-0.1 0.2 0 0-0.1 0h-0.7q-0.1 0-0.1 0-0.1-0.1-0.1-0.2v-6.3h-2.2q-0.1 0-0.2-0.1-0.1 0-0.1-0.1v-0.4q0-0.1 0.1-0.1 0.1-0.1 0.2-0.1h5.5q0.2 0 0.2 0.2z"/><path class="a" d="m75.1 65q0 0.4-0.2 0.7-0.1 0.4-0.4 0.7-0.3 0.2-0.9 0.4-0.6 0.2-1.4 0.2-0.6 0-1.1-0.1-0.5 0-0.8 0-0.2-0.1-0.2-0.1-0.1 0-0.1-0.1v-0.4q0-0.1 0.1-0.1 0.1-0.1 0.1-0.1h0.1q0.2 0 0.4 0.1 0.3 0 0.5 0 0.3 0 0.5 0 0.3 0 0.5 0 0.5 0 0.9-0.1 0.3-0.1 0.5-0.2 0.2-0.2 0.3-0.4 0-0.2 0-0.5 0-0.2 0-0.3-0.1-0.2-0.3-0.3-0.1-0.2-0.4-0.3-0.2-0.2-0.6-0.4l-1.2-0.6q-0.8-0.4-1.2-0.8-0.4-0.4-0.4-1 0-0.9 0.8-1.3 0.7-0.4 2-0.4 0.3 0 0.6 0 0.2 0 0.5 0 0.3 0 0.5 0 0.3 0.1 0.4 0.1 0.2 0 0.2 0.1v0.5q0 0.1-0.2 0.1-0.4 0-0.9 0-0.6 0-1.1 0-0.9 0-1.3 0.2-0.4 0.2-0.4 0.7 0 0.3 0.3 0.6 0.3 0.2 1 0.6l1 0.5q0.5 0.3 0.9 0.5 0.3 0.2 0.5 0.5 0.3 0.2 0.4 0.5 0.1 0.2 0.1 0.5z"/><path fill-rule="evenodd" class="a" d="m6.6 35.9q0.4 0 0.4 0.3v0.7q0 0.3-0.4 0.3-0.2 0.1-0.3 0.1-0.1 0-0.2 0-2.5 0-3.5-1.1-1.1-1-1.1-3 0-0.2 0-0.4 0-0.2 0-0.4 0-0.3 0.1-0.5 0-0.2 0-0.3 0-0.2 0.1-0.3 0.1-0.1 0.3-0.1 0.3 0 0.7 0 0.5 0 0.9 0h0.6l-1.9-4.3q0-0.1 0-0.2 0-0.1 0-0.1v-0.6q0-0.1 0.1-0.2 0.1-0.1 0.2-0.2 0.7-0.5 1.9-0.9 1.2-0.3 2.4-0.3 0.9 0 1.8 0.2 0.8 0.2 1.4 0.6 0.6 0.4 0.9 1.1 0.4 0.6 0.4 1.5v0.4q0 0.4-0.2 0.9-0.1 0.5-0.2 0.8-0.2 0.4-0.5 0.8-0.2 0.3-0.5 0.4h2.7v1.6c-0.2 0-8.4 0-8.7 0q-0.5 0-0.8 0 0 0.1 0 0.3-0.1 0.3-0.1 0.4 0.1 0.6 0.2 1.1 0.2 0.4 0.6 0.7 0.3 0.4 0.9 0.5 0.6 0.2 1.6 0.2zm0.8-4.7q1.1-0.3 1.7-1.1 0.6-0.8 0.6-1.9v-0.2q0-1.2-0.8-1.7-0.7-0.5-2.1-0.5-0.2 0-0.6 0-0.3 0-0.7 0.1-0.4 0.1-0.8 0.2-0.4 0.1-0.8 0.4l2.1 4.7z"/><path class="a" d="m11.9 31.4q0-0.1 0.2-0.2 0.2-0.1 0.5-0.1h1.4q0.6 0 0.8 0 0.1-0.1 0.1-0.6 0-0.6 0-1.2 0-0.5 0-1.1 0-0.5 0-1.1 0-0.6 0-1.3 0-0.1 0.1-0.2 0.1-0.1 0.2-0.1h1q0.2 0 0.3 0.1 0.1 0.1 0.1 0.2 0 0.6 0 1 0 0.4 0 0.8 0 0.4 0 0.7 0 0.4 0 1 0 0.8 0 1.5 0 0.8-0.1 1.2 0 0.2-0.1 0.3-0.1 0.1-0.3 0.2-0.2 0-0.5 0.1-0.3 0-0.6 0-0.4 0.1-0.8 0.1-0.3 0-0.7 0h-0.9q-0.3 0-0.5-0.1-0.2-0.1-0.2-0.2zm0.2 3.4q0-0.2 0.1-0.3 0.2-0.1 0.4-0.1h0.7q0.2 0 0.3 0.1 0.2 0.1 0.2 0.3v0.9q0 0.2-0.2 0.3-0.1 0.1-0.3 0.1h-0.7q-0.2 0-0.4-0.1-0.1-0.1-0.1-0.3zm3.1 0q0-0.1 0.2-0.3 0.1-0.1 0.3-0.1h0.7q0.2 0 0.4 0.1 0.1 0.2 0.1 0.3v1q0 0.1-0.1 0.3-0.2 0.1-0.4 0.1h-0.7q-0.2 0-0.3-0.1-0.2-0.2-0.2-0.3z"/><path class="a" d="m17.7 35.7q0-0.2 0.4-0.2h0.2q0.4 0 0.7-0.1 0.4 0 0.6-0.1 0.2-0.2 0.3-0.4 0.1-0.3 0.1-0.7v-8.4q0-0.1 0.1-0.2 0.1-0.1 0.3-0.1h0.9q0.2 0 0.3 0.1 0.1 0.1 0.1 0.2v8q0 0.6-0.1 1.1 0 0.5-0.3 0.9-0.4 0.6-1.1 0.8-0.7 0.2-1.6 0.2-0.1 0-0.2 0-0.2 0-0.4 0-0.3-0.1-0.3-0.3z"/><path class="a" d="m24.4 19.6q0-0.1 0.1-0.2 0.1-0.1 0.3-0.1h1q0.1 0 0.2 0.1 0.1 0.1 0.1 0.2v10.5q0 0.3 0.1 0.6 0.1 0.2 0.3 0.3 0.1 0.1 0.4 0.1 0.2 0 0.6 0h0.5v1.6h-1q-0.6 0-1.1-0.1-0.5-0.1-0.8-0.4-0.4-0.2-0.5-0.7-0.2-0.4-0.2-1.1z"/><path class="a" d="m27.8 32.7q-0.2 0-0.4-0.1-0.2-0.1-0.2-0.2v-1q0-0.1 0.2-0.2 0.2-0.1 0.4-0.1h4.5v1.6z"/><path class="a" d="m32.1 32.7q-0.2 0-0.4-0.1-0.2-0.1-0.2-0.2v-1q0-0.1 0.2-0.2 0.2-0.1 0.4-0.1h4.5v1.6z"/><path class="a" d="m35.8 31.4q0-0.1 0.2-0.2 0.2-0.1 0.4-0.1h0.8q0.2 0 0.4 0 0.3 0 0.5-0.1 0.2 0 0.4-0.2 0.1-0.1 0.1-0.3v-3.9q0-0.1 0.1-0.2 0.1-0.1 0.3-0.1h0.9q0.1 0 0.2 0.1 0.1 0.1 0.1 0.2v4.2q0.1 0.1 0.3 0.2 0.2 0.1 0.4 0.1 0.2 0 0.5 0.1 0.2 0 0.4 0h0.4q0.2 0 0.4 0 0.3-0.1 0.5-0.1 0.2-0.1 0.3-0.2 0.1-0.1 0.1-0.4v-4.5q0-0.1 0.2-0.2 0.1-0.1 0.2-0.1h0.9q0.2 0 0.3 0.1 0.1 0.1 0.1 0.2v4.8q0.1 0.2 0.6 0.3 0.5 0.1 1 0.1h0.3q0.1 0 0.4 0 0.2-0.1 0.5-0.1 0.2-0.1 0.3-0.2 0.2-0.1 0.2-0.4v-5.1q0-0.2 0.1-0.3 0.1-0.1 0.3-0.1h0.9q0.2 0 0.3 0.1 0.1 0.1 0.1 0.3v5.3q0 0.2 0.2 0.2 0.2 0.1 0.5 0.2 0.2 0 0.5 0 0.2 0 0.4 0h0.4v1.6h-0.4q-0.5 0-1.2-0.1-0.7-0.2-1.2-0.5-0.5 0.3-1.2 0.5-0.6 0.1-1.2 0.1h-0.3q-0.7 0-1.2-0.1-0.6-0.2-1.1-0.5-0.8 0.6-2.4 0.6h-0.3q-0.5 0-1.1-0.1-0.7-0.2-1.1-0.5-0.3 0.2-0.6 0.3-0.3 0.1-0.6 0.2-0.3 0-0.6 0.1-0.4 0-0.6 0h-0.7q-0.2 0-0.4-0.1-0.2-0.1-0.2-0.2zm5.9-9q0-0.2 0.2-0.3 0.1-0.1 0.3-0.1h0.8q0.2 0 0.3 0.1 0.1 0.1 0.1 0.3v0.9q0 0.1-0.1 0.3-0.1 0.1-0.3 0.1h-0.8q-0.2 0-0.3-0.1-0.2-0.2-0.2-0.3zm1.7-2.2q0-0.2 0.2-0.3 0.1-0.1 0.3-0.1h0.7q0.2 0 0.3 0.1 0.2 0.1 0.2 0.3v0.8q0 0.2-0.2 0.3-0.1 0.1-0.3 0.1h-0.7q-0.2 0-0.3-0.1-0.2-0.1-0.2-0.3zm1.6 2.2q0-0.2 0.2-0.3 0.1-0.1 0.3-0.1h0.8q0.1 0 0.3 0.1 0.1 0.1 0.1 0.3v0.9q0 0.1-0.1 0.2-0.2 0.2-0.3 0.2h-0.8q-0.2 0-0.3-0.2-0.2-0.1-0.2-0.2z"/><path fill-rule="evenodd" class="a" d="m51.4 31.4q0-0.1 0.2-0.2 0.2-0.1 0.4-0.1h0.7q0.1 0 0.3 0 0.3 0 0.5 0 0.2-0.1 0.4-0.2 0.2-0.1 0.2-0.3 0.1-0.2 0.1-0.5v-1.7q0-1.8 1-2.8 1.1-1 3.1-1 2 0 3 1 1 0.9 1 2.8v1q0 0.2 0 0.5 0 0.2 0 0.4 0 0.3 0.2 0.4 0.2 0.2 0.4 0.3 0.2 0.1 0.5 0.1 0.2 0 0.4 0h0.2v1.6h-0.2q-0.7 0-1.3-0.2-0.7-0.2-1-0.5-1 1.2-3.2 1.2-1.2 0-2-0.3-0.9-0.3-1.4-0.9-0.4 0.4-1 0.5-0.6 0.2-1.4 0.2h-0.5q-0.2 0-0.4-0.1-0.2-0.1-0.2-0.2zm4.4-2.8v0.8q0 0.6 0.1 1 0.2 0.8 0.8 1.1 0.6 0.3 1.6 0.3 1.3 0 1.8-0.6 0.6-0.6 0.6-1.8v-0.8q0-1.2-0.6-1.9-0.5-0.6-1.8-0.6-1.3 0-1.9 0.6-0.6 0.7-0.6 1.9z"/><path class="a" d="m63.2 31.4q0-0.1 0.2-0.2 0.2-0.1 0.5-0.1h1.1q0.2 0 0.4 0 0.2 0 0.5-0.1 0.2 0 0.3-0.2 0.2-0.1 0.2-0.3v-10.9q0-0.1 0.1-0.2 0.1-0.1 0.3-0.1h0.9q0.2 0 0.3 0.1 0.1 0.1 0.1 0.2v11.1q0.1 0.2 0.3 0.2 0.1 0.1 0.4 0.2 0.2 0 0.4 0 0.3 0 0.5 0h0.2v1.6h-0.2q-0.3 0-0.6-0.1-0.4 0-0.7 0-0.3-0.1-0.6-0.2-0.4-0.1-0.6-0.3-0.5 0.3-1.2 0.5-0.7 0.1-1.2 0.1h-0.9q-0.3 0-0.5-0.1-0.2-0.1-0.2-0.2z"/><path class="a" d="m69.1 31.4q0-0.1 0.2-0.2 0.2-0.1 0.5-0.1h1.6q0.6 0 0.8 0 0.1-0.1 0.1-0.6v-10.9q0-0.1 0.1-0.2 0.1-0.1 0.3-0.1h1q0.1 0 0.2 0.1 0.1 0.1 0.1 0.2v10.3q0 0.2 0 0.5 0 0.3 0 0.5 0 0.3 0 0.6 0 0.3-0.1 0.5 0 0.2-0.1 0.3-0.1 0.1-0.3 0.2-0.2 0-0.5 0.1-0.3 0-0.6 0-0.4 0.1-0.8 0.1-0.4 0-0.7 0h-1.1q-0.3 0-0.5-0.1-0.2-0.1-0.2-0.2z"/><path fill-rule="evenodd" class="b" d="m89.5 1v5.5h-5.4v-5.5z"/><path fill-rule="evenodd" class="c" d="m89.5 12v5.4h-5.4v-5.4z"/><path class="d" d="m89.5 57.5h24.8v5.2h-20.1v5.4h20.1 3.6 1.9v-16h-1-4.5-24.8-5.4v5.4 10.6h5.4z"/><path fill-rule="evenodd" class="e" d="m84.1 47.5v-24.5h5.4v19.1h13.9v-4.4h-9.3v-14.7h20.3v-5.6h-20.3v-16.4h25.7v46.5zm15.4-41v5.5h14.8v-5.5zm9.4 25.8v9.8h5v-13.7h-14.4v3.9z"/><path fill-rule="evenodd" class="a" d="m11.4 48q0 1.3-0.3 2.2-0.3 1-0.9 1.7-0.6 0.6-1.4 1-0.8 0.3-1.8 0.4v0.8q0 0.3 0.1 0.5 0 0.2 0.1 0.3 0.2 0.1 0.4 0.1 0.3 0 0.6 0h1.2q0.1 0 0.3 0.1 0.1 0.1 0.1 0.2v0.6q0 0.2-0.4 0.3-0.4 0.1-1.2 0.1-0.7 0-1.2-0.1-0.6-0.1-1-0.3-0.3-0.3-0.5-0.7-0.2-0.5-0.2-1.1v-0.8q-1-0.1-1.8-0.5-0.8-0.3-1.4-1-0.5-0.6-0.9-1.6-0.3-0.9-0.3-2.2v-2.2q0-1.4 0.4-2.4 0.4-1 1.1-1.7 0.7-0.6 1.7-0.9 0.9-0.3 2.1-0.3 1.1 0 2.1 0.3 1 0.3 1.7 0.9 0.7 0.7 1.1 1.7 0.3 1 0.3 2.4zm-1.8-2.2q0-1-0.2-1.8-0.2-0.7-0.7-1.2-0.4-0.5-1.1-0.7-0.6-0.2-1.4-0.2-0.8 0-1.4 0.2-0.7 0.2-1.1 0.7-0.5 0.5-0.7 1.2-0.3 0.8-0.3 1.8v2.2q0 1.1 0.3 1.8 0.2 0.8 0.7 1.3 0.4 0.4 1 0.7 0.7 0.2 1.5 0.2 0.8 0 1.4-0.2 0.7-0.3 1.1-0.7 0.5-0.5 0.7-1.3 0.2-0.7 0.2-1.8z"/><path class="a" d="m27.1 53q0 0.1-0.1 0.2 0 0.1-0.1 0.1-0.3 0-0.7 0-0.5 0-1 0-0.6 0.1-1.1 0.1-0.6 0-1 0-2.1 0-3.1-0.8-1-0.7-1-2.4v-6.6q0-1.7 1-2.4 1-0.7 3.1-0.7 0.4 0 1 0 0.5 0 1 0 0.5 0 1 0 0.5 0.1 0.8 0.1 0.1 0 0.1 0.1 0.1 0 0.1 0.1v0.9q0 0.2-0.2 0.2h-3.8q-0.8 0-1.2 0.1-0.5 0.1-0.7 0.3-0.3 0.2-0.4 0.5-0.1 0.4-0.1 0.8v2.4h6q0.2 0 0.3 0.1 0.1 0.1 0.1 0.2v0.7q0 0.1-0.1 0.2-0.1 0.1-0.3 0.1h-6v2.9q0 0.5 0.1 0.8 0.1 0.3 0.4 0.6 0.2 0.2 0.7 0.3 0.4 0.1 1.2 0.1h3.8q0.2 0 0.2 0.2z"/><path class="a" d="m42.7 50q0 0.6-0.2 1.2-0.2 0.6-0.7 1.1-0.6 0.5-1.5 0.8-0.9 0.3-2.4 0.3-1 0-1.8-0.1-0.8-0.1-1.4-0.2-0.2 0-0.3-0.1-0.1-0.1-0.1-0.2v-0.7q0-0.1 0.1-0.2 0.1 0 0.3 0 0.4 0 0.8 0 0.4 0 0.8 0 0.5 0 0.9 0.1 0.4 0 0.7 0 0.9 0 1.5-0.2 0.6-0.1 0.9-0.4 0.3-0.3 0.4-0.6 0.2-0.4 0.2-0.8 0-0.4-0.1-0.6-0.2-0.3-0.4-0.5-0.3-0.3-0.7-0.6-0.5-0.3-1.1-0.6l-1.9-1q-1.4-0.7-2-1.5-0.7-0.7-0.7-1.7 0-1.6 1.2-2.3 1.2-0.7 3.4-0.7 0.5 0 1 0 0.4 0 0.9 0 0.4 0.1 0.8 0.1 0.5 0.1 0.7 0.1 0.4 0 0.4 0.3v0.7q0 0.3-0.4 0.3-0.7-0.1-1.6-0.1-0.9 0-1.8 0-1.5 0-2.1 0.3-0.7 0.4-0.7 1.3 0 0.6 0.5 1 0.5 0.5 1.6 1.1l1.8 0.9q0.8 0.4 1.4 0.8 0.6 0.4 1 0.9 0.3 0.4 0.5 0.8 0.1 0.4 0.1 1z"/><path fill-rule="evenodd" class="a" d="m59.9 53q0 0.2-0.3 0.2h-1.1q-0.2 0-0.2 0-0.1-0.1-0.2-0.2l-1.2-3.9h-5.1l-1.2 3.9q0 0.1-0.1 0.2-0.1 0-0.3 0h-1.1q-0.3 0-0.3-0.2 0-0.1 0-0.2l3.6-11q0.1-0.4 0.3-0.7 0.2-0.2 0.5-0.3 0.3-0.2 0.6-0.3 0.3 0 0.6 0 0.2 0 0.5 0 0.3 0.1 0.6 0.2 0.3 0.2 0.5 0.4 0.2 0.3 0.3 0.7l3.6 11q0 0.1 0 0.2zm-5.2-10.9q-0.1-0.3-0.3-0.3-0.3 0-0.4 0.3l-1.8 5.6h4.3z"/><path class="a" d="m74.7 53q0 0-0.1 0.1 0 0.1-0.1 0.1-0.4 0.1-1.4 0.1-1.1 0.1-2.4 0.1-0.8 0-1.6-0.1-0.7-0.1-1.3-0.5-0.6-0.3-0.9-0.9-0.4-0.7-0.4-1.7v-9.3q0-0.1 0.1-0.2 0.2-0.1 0.3-0.1h1q0.2 0 0.3 0.1 0.1 0.1 0.1 0.2v9.3q0 0.5 0.1 0.8 0.1 0.3 0.3 0.6 0.3 0.2 0.7 0.3 0.5 0.1 1.3 0.1h3.7q0.3 0 0.3 0.2z"/></svg>